<svg width="24" height="24" viewBox="0 0 24 24" fill="none" xmlns="http://www.w3.org/2000/svg">
<path d="M18.997 20C10.466 20.012 3.99099 13.46 3.99999 5.003C3.99999 4.45 4.44799 4 4.99999 4H7.63999C8.13499 4 8.55599 4.364 8.62899 4.854C8.8031 6.02905 9.14491 7.17305 9.64399 8.251L9.74699 8.473C9.81618 8.62239 9.83107 8.79124 9.78908 8.95043C9.74709 9.10962 9.65086 9.24917 9.51699 9.345C8.69899 9.929 8.38699 11.104 9.02399 12.02C9.82598 13.1733 10.8269 14.1746 11.98 14.977C12.897 15.613 14.072 15.301 14.655 14.484C14.7507 14.3497 14.8904 14.2531 15.0498 14.211C15.2092 14.1688 15.3784 14.1836 15.528 14.253L15.749 14.355C16.827 14.855 17.971 15.197 19.146 15.371C19.636 15.444 20 15.865 20 16.361V19C20 19.1314 19.9741 19.2615 19.9238 19.3829C19.8735 19.5043 19.7997 19.6146 19.7067 19.7075C19.6138 19.8003 19.5034 19.874 19.382 19.9242C19.2605 19.9744 19.1304 20.0001 18.999 20H18.997Z" fill="white"/>
</svg>
